<?xml version="1.0" encoding="utf-8"?>
<svg version="1.1" width="512px" height="512px" viewBox="-3.2 -3.2 38.40 38.40" xmlns="http://www.w3.org/2000/svg">
  <g class="bg">
    <style type="text/css"> .pictogram_een{fill:#FBF1C7;} .pictogram_twee{fill:#EBDBB2;} .pictogram_vijf{fill:#98971A;} .st0{fill:#0C6667;} .st1{fill:#EBDBB254D2E;} .st2{fill:#FBF1C727261;} .st3{fill:none;} .st4{clip-path:url(#SVGID_2_);fill:#FBF1C727261;} .st5{clip-path:url(#SVGID_2_);fill:none;} .st6{clip-path:url(#SVGID_6_);fill:#FBF1C7;} .st7{clip-path:url(#SVGID_8_);fill:#FBF1C727261;} .st8{clip-path:url(#SVGID_8_);fill:none;} .st9{clip-path:url(#SVGID_10_);fill:#FBF1C727261;} .st10{clip-path:url(#SVGID_10_);fill:none;} .st11{fill:#FBF1C7;} </style>
    <path class="pictogram_een" d="M 32 29 C 32 30.65 30.65 32 29 32 L 3 32 C 1.35 32 0 30.65 0 29 L 0 3 C 0 1.35 1.35 0 3 0 L 29 0 C 30.65 0 32 1.35 32 3 L 32 29 Z" style="transform-origin: 16px 16px;" transform="matrix(-1, 0, 0, -1, 0, -0.000002)"/>
    <path class="pictogram_twee" d="M 19 32 C 17.35 32 16 30.65 16 29 L 16 3 C 16 1.35 17.35 0 19 0 L 32 0 L 32 32 L 19 32 Z" style="transform-box: fill-box; transform-origin: 50% 50%;" transform="matrix(-1, 0, 0, -1, 0, -0.000002)"/>
  </g>
  <rect y="5" width="3" height="3" style="stroke-opacity: 0; stroke-width: 0px; stroke: rgb(152, 152, 26); fill: rgb(152, 151, 26);" x="5"/>
  <rect x="5" y="11" width="3" height="3" style="stroke-opacity: 0; stroke-width: 0px; stroke: rgb(152, 152, 26); fill: rgb(152, 151, 26);"/>
  <rect x="5" y="17" width="3" height="3" style="stroke-opacity: 0; stroke-width: 0px; stroke: rgb(152, 152, 26); fill: rgb(152, 151, 26);"/>
  <rect x="5" y="23" width="3" height="3" style="stroke-opacity: 0; stroke-width: 0px; stroke: rgb(152, 152, 26); fill: rgb(152, 151, 26);"/>
  <rect y="5" width="18" height="3" style="stroke-opacity: 0; stroke-width: 0px; stroke: rgb(152, 152, 26); fill: rgb(152, 151, 26);" x="11"/>
  <rect y="11" width="18" height="3" style="stroke-opacity: 0; stroke-width: 0px; stroke: rgb(152, 152, 26); fill: rgb(152, 151, 26);" x="11"/>
  <rect y="17" width="18" height="3" style="stroke-opacity: 0; stroke-width: 0px; stroke: rgb(152, 152, 26); fill: rgb(152, 151, 26);" x="11"/>
  <rect y="23" width="18" height="3" style="stroke-opacity: 0; stroke-width: 0px; stroke: rgb(152, 152, 26); fill: rgb(152, 151, 26);" x="11"/>
</svg>